<svg xmlns="http://www.w3.org/2000/svg" width="240" height="152" viewBox="0 0 240 152">
  <g id="wanganbg" transform="translate(-474 -372)">
    <g id="wanganbg-2" data-name="wanganbg" transform="translate(479.392 379.405)">
      <g id="组_59" data-name="组 59" transform="translate(0 0)" opacity="0.26">
        <g id="组_56" data-name="组 56">
          <g id="组_55" data-name="组 55">
            <path id="路径_21" data-name="路径 21" d="M196.617,126H185.671c-9.276,79.9,6.961,136.25,6.961,136.25h10.947C187.045,183.344,196.617,126,196.617,126Zm-22.868,0H37.482c-6.613,70.414,5.969,136.25,5.969,136.25H180.693C163.307,188.234,173.749,126,173.749,126Z" transform="translate(-35.561 -126)" fill="#2dffe4" fill-rule="evenodd"/>
          </g>
        </g>
        <g id="组_58" data-name="组 58">
          <g id="组_57" data-name="组 57">
            <path id="路径_22" data-name="路径 22" d="M196.617,126H185.671c-9.276,79.9,6.961,136.25,6.961,136.25h10.947C187.045,183.344,196.617,126,196.617,126Zm-22.868,0H37.482c-6.613,70.414,5.969,136.25,5.969,136.25H180.693C163.307,188.234,173.749,126,173.749,126Z" transform="translate(-35.561 -126)" fill="#00fff0" fill-rule="evenodd"/>
          </g>
        </g>
      </g>
      <g id="组_64" data-name="组 64" transform="translate(0 0)">
        <g id="组_61" data-name="组 61">
          <g id="组_60" data-name="组 60">
            <path id="路径_23" data-name="路径 23" d="M196.617,126H185.671c-9.276,79.9,6.961,136.25,6.961,136.25h10.947C187.045,183.344,196.617,126,196.617,126Zm-22.868,0H37.482c-6.613,70.414,5.969,136.25,5.969,136.25H180.693C163.307,188.234,173.749,126,173.749,126Z" transform="translate(-35.561 -126)" fill="none" stroke="#01b8ac" stroke-width="1"/>
          </g>
        </g>
        <g id="组_63" data-name="组 63">
          <g id="组_62" data-name="组 62">
            <path id="路径_24" data-name="路径 24" d="M196.617,126H185.671c-9.276,79.9,6.961,136.25,6.961,136.25h10.947C187.045,183.344,196.617,126,196.617,126Zm-22.868,0H37.482c-6.613,70.414,5.969,136.25,5.969,136.25H180.693C163.307,188.234,173.749,126,173.749,126Z" transform="translate(-35.561 -126)" fill="none" stroke="#01b8ac" stroke-width="1"/>
          </g>
        </g>
      </g>
    </g>
    <rect id="矩形_11" data-name="矩形 11" width="240" height="152" transform="translate(474 372)" fill="none"/>
  </g>
</svg>
